<?xml version="1.0" encoding="iso-8859-1"?>
<!-- Generator: Adobe Illustrator 19.0.0, SVG Export Plug-In . SVG Version: 6.00 Build 0)  -->
<svg version="1.1" id="Layer_1" xmlns="http://www.w3.org/2000/svg" xmlns:xlink="http://www.w3.org/1999/xlink" x="0px" y="0px"
	 viewBox="0 0 491.52 491.52" style="enable-background:new 0 0 491.52 491.52;" xml:space="preserve">
<g>
	<g>
		<path d="M471.04,368.64V61.44H347.781c-26.607-25.31-62.487-40.96-102.021-40.96s-75.412,15.65-102.019,40.96H20.48v307.2H0v55.44
			l46.96,46.96h397.6l46.96-46.96v-55.44H471.04z M40.96,81.92h84.88c-17.741,24.437-28.335,54.381-28.335,86.82v4.142
			C81.991,182.924,71.68,200.348,71.68,220.16c0,31.05,25.265,56.32,56.32,56.32h15.36V163.84H128c-3.352,0-6.62,0.349-9.813,0.913
			C120.319,96.147,176.651,40.96,245.76,40.96c69.114,0,125.446,55.188,127.578,123.794c-3.195-0.565-6.464-0.914-9.818-0.914
			h-15.36v112.64h15.36c5.33,0,10.469-0.794,15.36-2.184V307.2h-73.567c-4.241-11.894-15.501-20.48-28.833-20.48h-30.72
			c-16.94,0-30.72,13.78-30.72,30.72s13.78,30.72,30.72,30.72h30.72c13.332,0,24.593-8.586,28.833-20.48h94.047v-64.111
			c12.501-10.34,20.48-25.961,20.48-43.409c0-19.811-10.309-37.233-25.82-47.276v-4.144c0-32.439-10.594-62.383-28.336-86.82h84.876
			v286.72H40.96V81.92z M122.88,184.68v70.96c-17.345-2.5-30.72-17.46-30.72-35.48C92.16,202.14,105.535,187.18,122.88,184.68z
			 M399.36,220.16c0,18.02-13.375,32.98-30.72,35.48v-70.96C385.985,187.18,399.36,202.14,399.36,220.16z M286.72,317.44
			c0,5.65-4.595,10.24-10.24,10.24h-30.72c-5.645,0-10.24-4.59-10.24-10.24s4.595-10.24,10.24-10.24h30.72
			C282.125,307.2,286.72,311.79,286.72,317.44z M471.04,415.6l-34.96,34.96H55.44L20.48,415.6v-26.48h450.56V415.6z"/>
	</g>
</g>
<g>
	<g>
		<rect x="235.52" y="409.6" width="20.48" height="20.48"/>
	</g>
</g>
<g>
	<g>
		<rect x="194.56" y="409.6" width="20.48" height="20.48"/>
	</g>
</g>
<g>
	<g>
		<rect x="276.48" y="409.6" width="20.48" height="20.48"/>
	</g>
</g>
<g>
</g>
<g>
</g>
<g>
</g>
<g>
</g>
<g>
</g>
<g>
</g>
<g>
</g>
<g>
</g>
<g>
</g>
<g>
</g>
<g>
</g>
<g>
</g>
<g>
</g>
<g>
</g>
<g>
</g>
</svg>
